<svg width="20" height="20" viewBox="0 0 20 20" fill="none" xmlns="http://www.w3.org/2000/svg">
<path d="M10 4.96606C13.1009 4.96606 15.8664 6.74569 17.2164 9.56136C16.7336 10.5807 16.0545 11.458 15.2445 12.1681L16.3982 13.3462C17.5355 12.3185 18.4355 11.0319 19 9.56136C17.5845 5.89347 14.0909 3.29504 10 3.29504C8.96091 3.29504 7.96273 3.46214 7.02182 3.77128L8.37182 5.14987C8.90364 5.04125 9.44364 4.96606 10 4.96606ZM9.12455 5.91854L10.8182 7.64804C11.2845 7.85692 11.6609 8.24125 11.8655 8.71749L13.5591 10.447C13.6245 10.1629 13.6736 9.86214 13.6736 9.553C13.6818 7.48094 12.0291 5.80157 10 5.80157C9.69727 5.80157 9.41091 5.84334 9.12455 5.91854ZM1.82636 3.18642L4.01909 5.42559C2.68545 6.49504 1.63 7.91541 1 9.56136C2.41545 13.2292 5.90909 15.8277 10 15.8277C11.2436 15.8277 12.4382 15.5854 13.5345 15.1426L16.3327 18L17.4864 16.8219L2.98 2L1.82636 3.18642ZM7.96273 9.45274L10.0982 11.6334C10.0655 11.6418 10.0327 11.6501 10 11.6501C8.87091 11.6501 7.95455 10.7144 7.95455 9.56136C7.95455 9.51958 7.96273 9.49452 7.96273 9.45274ZM5.18091 6.61201L6.61273 8.07415C6.42455 8.53368 6.31818 9.03499 6.31818 9.56136C6.31818 11.6334 7.97091 13.3211 10 13.3211C10.5155 13.3211 11.0064 13.2125 11.4482 13.0204L12.25 13.8392C11.53 14.0397 10.7773 14.1567 10 14.1567C6.89909 14.1567 4.13364 12.377 2.78364 9.56136C3.35636 8.36658 4.19091 7.38068 5.18091 6.61201Z" fill="#454545"/>
</svg>
