<svg width="20" height="20" viewBox="0 0 20 20" fill="none" xmlns="http://www.w3.org/2000/svg">
<path d="M10 4.73333C13.1009 4.73333 15.8664 6.57933 17.2164 9.5C15.8664 12.4207 13.1009 14.2667 10 14.2667C6.89909 14.2667 4.13364 12.4207 2.78364 9.5C4.13364 6.57933 6.89909 4.73333 10 4.73333ZM10 3C5.90909 3 2.41545 5.69533 1 9.5C2.41545 13.3047 5.90909 16 10 16C14.0909 16 17.5845 13.3047 19 9.5C17.5845 5.69533 14.0909 3 10 3ZM10 7.33333C11.1291 7.33333 12.0455 8.304 12.0455 9.5C12.0455 10.696 11.1291 11.6667 10 11.6667C8.87091 11.6667 7.95455 10.696 7.95455 9.5C7.95455 8.304 8.87091 7.33333 10 7.33333ZM10 5.6C7.97091 5.6 6.31818 7.35067 6.31818 9.5C6.31818 11.6493 7.97091 13.4 10 13.4C12.0291 13.4 13.6818 11.6493 13.6818 9.5C13.6818 7.35067 12.0291 5.6 10 5.6Z" fill="#454545"/>
</svg>
